# xmcd
#
# Track frame offsets:
# 150
# 18896
# 36145
#
# Disc length: 690 seconds
#
# Revision: 1
# Processed by: cddbd v1.5.2PL0 Copyright (c) Steve Scherf et al.
# Submitted via: CedeCatalogueitor 2.6.0.6 http://personales.ya.com/cdcatalogueitor
#
DISCID=1702b003
DTITLE=The Pains Of Being Pure At Heart - Young Adult Friction [CD Single)
DYEAR=1900
DGENRE=
TTITLE0=Young Adult Friction
TTITLE1=Ramona
TTITLE2=Young Adult Friction
EXTD=
EXTT0=
EXTT1=
EXTT2=
PLAYORDER=
